<svg xmlns="http://www.w3.org/2000/svg" width="46.78" height="43.656" viewBox="0 0 46.78 43.656">
  <g id="Group_1149" data-name="Group 1149" transform="translate(-219.987 -232.032)">
    <g id="Group_1148" data-name="Group 1148" transform="translate(219.987 232.032)">
      <rect id="Rectangle_2174" data-name="Rectangle 2174" width="1.559" height="16.372" transform="translate(8.578 21.046)"/>
      <path id="Path_1325" data-name="Path 1325" d="M255.073,232.808a11.661,11.661,0,0,0-7.407,2.65,39.727,39.727,0,0,0-5.068-.312c-1.38,0-2.682.062-3.891.179a10.909,10.909,0,1,0-13.261,17.066V270.23a.752.752,0,0,0,.133.429l3.119,4.678a.788.788,0,0,0,.515.343.766.766,0,0,0,.133.008.787.787,0,0,0,.468-.156l6.237-4.678a.775.775,0,0,0,.179-1.053l-1.271-1.91,1.271-1.91a.781.781,0,0,0-.093-.983l-1.793-1.785,1.793-1.785a.8.8,0,0,0,.187-.8l-.7-2.089.7-2.089a.925.925,0,0,0,.039-.25v-3.8a10.893,10.893,0,0,0,5.457-9.449c0-.265-.023-.53-.039-.8.273.008.538.016.819.016.335,0,.678-.023,1.021-.031a11.875,11.875,0,0,0-.242,2.37v21.05a1.564,1.564,0,0,0,1.559,1.559h20.27a1.564,1.564,0,0,0,1.559-1.559V244.5a11.709,11.709,0,0,0-11.694-11.694Zm-19.85,18.431a.78.78,0,0,0-.421.694v4.14l-.741,2.214a.779.779,0,0,0,0,.5l.631,1.879-2,2a.786.786,0,0,0,0,1.108l1.887,1.887-1.2,1.808a.752.752,0,0,0,0,.858l1.146,1.731-4.982,3.742-2.534-3.8V251.932a.78.78,0,0,0-.421-.694,9.355,9.355,0,1,1,13.347-10.72,25.891,25.891,0,0,1-5.239-.8,3.9,3.9,0,1,0,.031,1.622,30.879,30.879,0,0,0,5.5.756c.023.273.039.554.039.842a9.342,9.342,0,0,1-5.037,8.3Zm-2.011-10.361a2.332,2.332,0,1,1-2.308-2.612c.016,0,.039.008.055.008a1.394,1.394,0,0,0-.055.382c0,.9.78,1.645,2.308,2.222Zm10.86-.312c-.85.031-1.692.039-2.518.016a10.852,10.852,0,0,0-1.637-3.789c.85-.055,1.747-.086,2.682-.086,1.255,0,2.479.062,3.633.164a11.638,11.638,0,0,0-2.16,3.7Zm21.136,24.987h-20.27V244.5a9.964,9.964,0,0,1,.3-2.425h.132a27.3,27.3,0,0,0,5.855-.944,3.9,3.9,0,1,0,.14-1.692,22.291,22.291,0,0,1-5.6,1.037,10.19,10.19,0,0,1,2.4-3.376.151.151,0,0,1,.063.008l.016-.086a10.12,10.12,0,0,1,16.957,7.477ZM254.27,238.413a2.339,2.339,0,1,1-1.536,2.191c0-.016.008-.031.008-.047,1.029-.522,1.552-1.162,1.552-1.9a1.42,1.42,0,0,0-.023-.242Zm0,0" transform="translate(-219.987 -232.032)"/>
    </g>
    <path id="Path_1326" data-name="Path 1326" d="M440.372,346H424.78a.78.78,0,0,0-.78.78v15.593a.78.78,0,0,0,.78.78h15.593a.78.78,0,0,0,.78-.78V346.78a.78.78,0,0,0-.78-.78Zm-.78,15.593H425.559V347.559h14.033Zm0,0" transform="translate(-177.503 -99.159)"/>
  </g>
</svg>
