<svg id="Group_1150" data-name="Group 1150" xmlns="http://www.w3.org/2000/svg" width="43.656" height="43.656" viewBox="0 0 43.656 43.656">
  <path id="Path_1327" data-name="Path 1327" d="M42.8,17.8H37.346a.853.853,0,0,0-.853.853v4.306a.853.853,0,0,0,1.705,0V19.5H41.95V41.95H38.2v-12.6a.853.853,0,0,0-1.705,0v12.6H34.788V24.3a.853.853,0,0,0-.853-.853H28.478a.853.853,0,0,0-.853.853V41.95H25.921V30.269a.853.853,0,0,0-.853-.853H19.611a.853.853,0,0,0-.853.853V41.95H17.053V35.161a.853.853,0,0,0-.853-.853H10.743a.853.853,0,0,0-.853.853V41.95H2.558a.854.854,0,0,1-.853-.853V2.558a.854.854,0,0,1,.853-.853h22V7.333a2.561,2.561,0,0,0,2.558,2.558H32.74V20.378a.853.853,0,1,0,1.705,0V9.038a.853.853,0,0,0-.25-.6L26.01.25a.853.853,0,0,0-.6-.25H2.558A2.561,2.561,0,0,0,0,2.558V41.1a2.561,2.561,0,0,0,2.558,2.558H42.8a.853.853,0,0,0,.853-.853V18.652A.853.853,0,0,0,42.8,17.8ZM26.259,7.333V2.911l5.274,5.274H27.112A.854.854,0,0,1,26.259,7.333ZM11.6,41.95V36.014h3.752V41.95Zm8.868,0V31.122h3.752V41.95Zm8.868,0v-16.8h3.752v16.8Z"/>
  <path id="Path_1328" data-name="Path 1328" d="M428.853,296.6a.853.853,0,1,0-.6-.25A.859.859,0,0,0,428.853,296.6Z" transform="translate(-391.507 -269.746)"/>
  <path id="Path_1329" data-name="Path 1329" d="M61.444,54.729a.853.853,0,0,0-.853.853v1.534a7.842,7.842,0,1,0,8.649,8.649h1.534a.853.853,0,0,0,.853-.853A10.194,10.194,0,0,0,61.444,54.729Zm0,16.32a6.137,6.137,0,0,1-.853-12.215v6.078a.853.853,0,0,0,.853.853h6.078A6.147,6.147,0,0,1,61.444,71.049Zm.853-6.99V56.477a8.494,8.494,0,0,1,7.582,7.582H62.3Z" transform="translate(-49.032 -50.063)"/>
</svg>
