<svg id="Group_1174" data-name="Group 1174" xmlns="http://www.w3.org/2000/svg" width="43.312" height="43.312" viewBox="0 0 43.312 43.312">
  <path id="Path_1308" data-name="Path 1308" d="M23.592,43.312H19.72a2.283,2.283,0,0,1-2.247-1.931c-.122-.813-.239-1.649-.348-2.485a.245.245,0,0,0-.175-.209,17.586,17.586,0,0,1-4.009-1.661.247.247,0,0,0-.273.023c-.668.514-1.343,1.023-2,1.512a2.283,2.283,0,0,1-2.954-.223L4.974,35.6a2.283,2.283,0,0,1-.223-2.954c.49-.662,1-1.336,1.512-2a.247.247,0,0,0,.023-.273,17.584,17.584,0,0,1-1.661-4.009.246.246,0,0,0-.209-.175c-.834-.109-1.67-.226-2.485-.348A2.283,2.283,0,0,1,0,23.592V19.72a2.283,2.283,0,0,1,1.931-2.246c.815-.122,1.651-.239,2.485-.348a.245.245,0,0,0,.209-.175,17.585,17.585,0,0,1,1.661-4.009.247.247,0,0,0-.023-.273c-.512-.666-1.021-1.34-1.512-2a2.283,2.283,0,0,1,.223-2.954L7.712,4.974a2.283,2.283,0,0,1,2.954-.223c.661.489,1.336,1,2,1.512a.248.248,0,0,0,.273.023,17.582,17.582,0,0,1,4.009-1.661.246.246,0,0,0,.175-.209c.109-.836.226-1.672.348-2.485A2.283,2.283,0,0,1,19.72,0h3.872a2.283,2.283,0,0,1,2.247,1.931c.122.813.239,1.649.348,2.485a.246.246,0,0,0,.175.209A17.587,17.587,0,0,1,30.37,6.286a.247.247,0,0,0,.273-.023c.668-.514,1.343-1.023,2-1.512a2.283,2.283,0,0,1,2.954.223l2.738,2.738a2.283,2.283,0,0,1,.223,2.954c-.49.663-1,1.337-1.512,2a.247.247,0,0,0-.023.273,17.585,17.585,0,0,1,1.661,4.009.245.245,0,0,0,.209.175c.835.109,1.671.226,2.485.348a2.283,2.283,0,0,1,1.931,2.246v3.872a2.283,2.283,0,0,1-1.931,2.246c-.815.122-1.651.239-2.485.348a.246.246,0,0,0-.209.175,17.582,17.582,0,0,1-1.661,4.009.247.247,0,0,0,.023.273c.513.667,1.022,1.341,1.512,2a2.283,2.283,0,0,1-.223,2.954L35.6,38.338a2.283,2.283,0,0,1-2.954.223c-.661-.489-1.336-1-2-1.512a.248.248,0,0,0-.273-.023,17.58,17.58,0,0,1-4.009,1.661.246.246,0,0,0-.175.209c-.109.835-.226,1.671-.348,2.485A2.283,2.283,0,0,1,23.592,43.312Zm-10.767-8.34a2.258,2.258,0,0,1,1.116.3,15.559,15.559,0,0,0,3.547,1.47,2.264,2.264,0,0,1,1.643,1.9c.107.823.223,1.647.342,2.447a.248.248,0,0,0,.246.208h3.872a.248.248,0,0,0,.246-.208c.12-.8.235-1.625.342-2.447a2.264,2.264,0,0,1,1.643-1.9,15.564,15.564,0,0,0,3.547-1.47,2.265,2.265,0,0,1,2.5.179c.658.506,1.322,1.008,1.974,1.489a.249.249,0,0,0,.321-.027l2.738-2.738a.249.249,0,0,0,.027-.321c-.483-.652-.984-1.316-1.489-1.973a2.265,2.265,0,0,1-.179-2.505,15.563,15.563,0,0,0,1.47-3.547,2.264,2.264,0,0,1,1.9-1.643c.822-.107,1.645-.222,2.447-.342a.248.248,0,0,0,.208-.246V19.72a.248.248,0,0,0-.208-.246c-.8-.12-1.626-.235-2.448-.342a2.264,2.264,0,0,1-1.9-1.643,15.56,15.56,0,0,0-1.47-3.547,2.265,2.265,0,0,1,.179-2.5c.506-.657,1.007-1.321,1.489-1.974a.248.248,0,0,0-.027-.321L34.17,6.4a.248.248,0,0,0-.321-.027c-.651.482-1.315.983-1.973,1.489a2.265,2.265,0,0,1-2.5.179,15.565,15.565,0,0,0-3.547-1.47,2.264,2.264,0,0,1-1.643-1.9c-.107-.823-.223-1.647-.342-2.447a.248.248,0,0,0-.246-.208H19.72a.248.248,0,0,0-.246.207c-.12.8-.235,1.624-.342,2.448a2.264,2.264,0,0,1-1.643,1.9,15.559,15.559,0,0,0-3.547,1.47,2.265,2.265,0,0,1-2.5-.179c-.658-.507-1.322-1.008-1.974-1.489a.248.248,0,0,0-.321.027L6.4,9.142a.248.248,0,0,0-.027.321c.483.654.985,1.317,1.489,1.974a2.265,2.265,0,0,1,.179,2.5,15.558,15.558,0,0,0-1.47,3.547,2.264,2.264,0,0,1-1.9,1.643c-.821.107-1.645.222-2.447.342a.248.248,0,0,0-.208.246v3.872a.248.248,0,0,0,.208.246c.8.12,1.626.235,2.448.342a2.264,2.264,0,0,1,1.9,1.643,15.562,15.562,0,0,0,1.47,3.547,2.265,2.265,0,0,1-.179,2.5c-.506.658-1.007,1.322-1.489,1.974a.248.248,0,0,0,.027.321l2.738,2.738a.248.248,0,0,0,.321.027c.651-.482,1.315-.983,1.974-1.489A2.273,2.273,0,0,1,12.825,34.972Z"/>
  <path id="Path_1309" data-name="Path 1309" d="M154.267,163.669a9.4,9.4,0,1,1,9.4-9.4A9.412,9.412,0,0,1,154.267,163.669Zm0-16.78a7.379,7.379,0,1,0,7.379,7.379A7.387,7.387,0,0,0,154.267,146.889Z" transform="translate(-132.611 -132.611)"/>
</svg>
